<svg width="30" height="30" viewBox="0 0 30 30" fill="none" xmlns="http://www.w3.org/2000/svg">
<g clip-path="url(#clip0_214_4108)">
<path d="M26.8751 4.99997H23.5417V7.49997C23.5417 7.74073 23.4943 7.97913 23.4022 8.20156C23.31 8.42399 23.175 8.6261 23.0047 8.79634C22.8345 8.96658 22.6324 9.10162 22.41 9.19375C22.1875 9.28589 21.9491 9.33331 21.7084 9.33331C21.4676 9.33331 21.2292 9.28589 21.0068 9.19375C20.7844 9.10162 20.5823 8.96658 20.412 8.79634C20.2418 8.6261 20.1067 8.42399 20.0146 8.20156C19.9225 7.97913 19.8751 7.74073 19.8751 7.49997V4.99997H10.1667V7.49997C10.1667 7.9862 9.97356 8.45252 9.62975 8.79634C9.28593 9.14015 8.81962 9.33331 8.33338 9.33331C7.84715 9.33331 7.38084 9.14015 7.03702 8.79634C6.69321 8.45252 6.50005 7.9862 6.50005 7.49997V4.99997H3.16672C2.9684 4.99772 2.77165 5.03525 2.5881 5.11036C2.40454 5.18547 2.23791 5.29662 2.09806 5.43725C1.95821 5.57787 1.84798 5.74511 1.7739 5.92908C1.69981 6.11305 1.66336 6.31001 1.66672 6.50831V25.1583C1.66341 25.3531 1.6985 25.5467 1.77001 25.7279C1.84151 25.9091 1.94801 26.0745 2.08344 26.2146C2.21886 26.3546 2.38055 26.4666 2.55927 26.5442C2.738 26.6218 2.93025 26.6634 3.12505 26.6666H26.8751C27.0699 26.6634 27.2621 26.6218 27.4408 26.5442C27.6196 26.4666 27.7812 26.3546 27.9167 26.2146C28.0521 26.0745 28.1586 25.9091 28.2301 25.7279C28.3016 25.5467 28.3367 25.3531 28.3334 25.1583V6.50831C28.3367 6.31351 28.3016 6.11996 28.2301 5.93873C28.1586 5.75749 28.0521 5.59212 27.9167 5.45205C27.7812 5.31198 27.6196 5.19997 27.4408 5.1224C27.2621 5.04483 27.0699 5.00323 26.8751 4.99997ZM8.33338 21.6666H6.66672V20H8.33338V21.6666ZM8.33338 17.5H6.66672V15.8333H8.33338V17.5ZM8.33338 13.3333H6.66672V11.6666H8.33338V13.3333ZM13.3334 21.6666H11.6667V20H13.3334V21.6666ZM13.3334 17.5H11.6667V15.8333H13.3334V17.5ZM13.3334 13.3333H11.6667V11.6666H13.3334V13.3333ZM18.3334 21.6666H16.6667V20H18.3334V21.6666ZM18.3334 17.5H16.6667V15.8333H18.3334V17.5ZM18.3334 13.3333H16.6667V11.6666H18.3334V13.3333ZM23.3334 21.6666H21.6667V20H23.3334V21.6666ZM23.3334 17.5H21.6667V15.8333H23.3334V17.5ZM23.3334 13.3333H21.6667V11.6666H23.3334V13.3333Z" fill="#0175B0"/>
<path d="M8.33333 8.33335C8.55435 8.33335 8.76631 8.24556 8.92259 8.08928C9.07887 7.933 9.16667 7.72103 9.16667 7.50002V2.50002C9.16667 2.27901 9.07887 2.06704 8.92259 1.91076C8.76631 1.75448 8.55435 1.66669 8.33333 1.66669C8.11232 1.66669 7.90036 1.75448 7.74408 1.91076C7.5878 2.06704 7.5 2.27901 7.5 2.50002V7.50002C7.5 7.72103 7.5878 7.933 7.74408 8.08928C7.90036 8.24556 8.11232 8.33335 8.33333 8.33335Z" fill="#0175B0"/>
<path d="M21.6666 8.33335C21.8876 8.33335 22.0996 8.24556 22.2558 8.08928C22.4121 7.933 22.4999 7.72103 22.4999 7.50002V2.50002C22.4999 2.27901 22.4121 2.06704 22.2558 1.91076C22.0996 1.75448 21.8876 1.66669 21.6666 1.66669C21.4456 1.66669 21.2336 1.75448 21.0773 1.91076C20.921 2.06704 20.8333 2.27901 20.8333 2.50002V7.50002C20.8333 7.72103 20.921 7.933 21.0773 8.08928C21.2336 8.24556 21.4456 8.33335 21.6666 8.33335Z" fill="#0175B0"/>
</g>
<defs>
<clipPath id="clip0_214_4108">
<rect width="30" height="30" fill="white"/>
</clipPath>
</defs>
</svg>
