<svg width="30" height="30" viewBox="0 0 30 30" fill="none" xmlns="http://www.w3.org/2000/svg">
<path d="M15 2.5C8.125 2.5 2.5 8.125 2.5 15C2.5 21.875 8.125 27.5 15 27.5C21.875 27.5 27.5 21.875 27.5 15C27.5 8.125 21.875 2.5 15 2.5ZM19.4375 19.75L14.3375 16.6125C13.9625 16.3875 13.7375 15.9875 13.7375 15.55V9.6875C13.75 9.175 14.175 8.75 14.6875 8.75C15.2 8.75 15.625 9.175 15.625 9.6875V15.25L20.425 18.1375C20.875 18.4125 21.025 19 20.75 19.45C20.475 19.8875 19.8875 20.025 19.4375 19.75Z" fill="#0175B0"/>
</svg>
