<svg width="376" height="376" viewBox="0 0 376 376" fill="none" xmlns="http://www.w3.org/2000/svg">
<rect width="376" height="375.357" rx="62" fill="white"/>
<path d="M58 114.519C58 86.6176 79.2916 64 105.553 64H271.16C297.426 64 318.718 86.6176 318.718 114.519C318.718 142.421 297.426 165.038 271.16 165.038H105.553C79.287 165.038 58 142.421 58 114.519Z" stroke="#2D2953" stroke-width="23.5008"/>
<path d="M318.044 199.54H109.568C81.6084 199.54 58.9396 223.62 58.9396 253.327V255.328C58.9396 285.766 82.1656 310.438 110.819 310.438H318.044H300.069" stroke="#2D2953" stroke-width="24.5148"/>
<path d="M268.648 170.478L234.881 116.278" stroke="#2D2953" stroke-width="23.5008"/>
<path d="M8 61.6224C8 32.0076 32.0076 8 61.6224 8H314.263C343.878 8 367.886 32.0076 367.886 61.6224V313.648C367.886 343.262 343.878 367.27 314.263 367.27H61.6224C32.0076 367.27 8 343.262 8 313.648V61.6224Z" stroke="#2D2953" stroke-width="9"/>
</svg>
