<svg width="20" height="15" viewBox="0 0 20 15" fill="none" xmlns="http://www.w3.org/2000/svg">
<path d="M18.9989 9.53674e-07L0.998938 9.53674e-07C0.816696 0.000574112 0.638062 0.0509262 0.482262 0.145639C0.326462 0.240352 0.199396 0.375836 0.114742 0.537512C0.0300884 0.699188 -0.00894737 0.880933 0.00183487 1.06318C0.0126171 1.24543 0.0728111 1.42128 0.175938 1.5718L9.17594 14.595C9.54894 15.135 10.4469 15.135 10.8209 14.595L19.8209 1.5718C19.9251 1.42159 19.9862 1.24565 19.9976 1.0631C20.0089 0.88055 19.9702 0.698369 19.8854 0.53635C19.8007 0.374332 19.6733 0.238673 19.517 0.144114C19.3607 0.0495558 19.1815 -0.000287056 18.9989 9.53674e-07Z" fill="#0175B0"/>
</svg>
